<svg id="Layer_1" data-name="Layer 1" xmlns="http://www.w3.org/2000/svg" viewBox="0 0 1366 768"><defs><style>.cls-1{fill:none;}.cls-2{fill:#d6c2ab;}.cls-3{fill:#9ec5ab;}.cls-4{fill:#f4e7d7;}</style></defs><title>about_bg</title><path class="cls-1" d="M0,404v.26L1.64,404Z"/><path class="cls-2" d="M1365,19.85V.5H1108.64c-.65,11,.08,34.71,15.63,53.24,14.48,17.26,38.1,26,70.25,26h0c.36,0,35.33-4.64,60.31,17.1,16.86,14.67,25.41,37.77,25.41,68.61-.06.34-5.79,34.48,15,59.28,14.4,17.17,37.87,25.91,69.73,26V24.62c.06-.91.15-1.46.15-1.48C1365.15,22,1365.09,20.91,1365,19.85Z"/><path class="cls-3" d="M1364.86,19.85V.5H1136.62c-.57,11,.07,34.71,13.92,53.24,12.89,17.26,33.92,26,62.54,26h0c.31,0,31.44-4.64,53.68,17.1,15,14.67,22.63,37.77,22.63,68.61-.05.34-5.16,34.48,13.37,59.28,12.82,17.17,33.72,25.91,62.08,26V24.63c.05-.92.14-1.47.14-1.49C1365,22,1365,20.91,1364.86,19.85Z"/><path class="cls-2" d="M147,756.83V768h23V756.83s.92-62.32-46.5-71.21a45.87,45.87,0,0,0-16.48.08c-1.12.19-2.4.38-3.81.51C147.87,696.92,147,756.83,147,756.83Z"/><path class="cls-3" d="M103.21,686.21c-.89-.22-1.79-.42-2.71-.59a44,44,0,0,0-12-.52A42.93,42.93,0,0,0,103.21,686.21Z"/><path class="cls-2" d="M25.85,401.88a97.37,97.37,0,0,1,5.2,31.61V613.14c0,75.36,39.23,75,53,72.56,1.5-.27,3-.47,4.53-.6-16-4.2-34.5-20.26-34.5-72V433.49a97.37,97.37,0,0,0-5.2-31.61C41.8,381.4,26.89,350.83,0,347.26v11.15C12.93,370.05,21.15,388.21,25.85,401.88Z"/><path class="cls-3" d="M31.05,613.14V433.49a97.37,97.37,0,0,0-5.2-31.61C21.15,388.21,12.93,370.05,0,358.41V768H147V756.83s.87-59.91-43.79-70.62a42.93,42.93,0,0,1-14.66-1.11c-1.51.13-3,.33-4.53.6C70.28,688.13,31.05,688.5,31.05,613.14Z"/><rect class="cls-4" x="1" y="1" width="1365" height="767"/><path class="cls-2" d="M694.88,729h453.41s73.37,6.67,73.37-55.56V588.53s-2.65-60,79.2-60H1366V489h-77.26c-93.21,0-90.2,68.3-90.2,68.3V654c0,70.87-83.55,63.27-83.55,63.27H598.63c-64.72,0-78.55,32.89-81.28,50.73H624.68C629.09,751.92,644.24,729,694.88,729Z"/><path class="cls-3" d="M1221.67,588.53v84.91c0,62.23-73.36,55.56-73.36,55.56H694.93c-50.63,0-65.78,22.92-70.19,39H1366V528.56h-65.13C1219,528.56,1221.67,588.53,1221.67,588.53Z"/><path class="cls-2" d="M25.85,366.38a97.37,97.37,0,0,0,5.2-31.61V155.12c0-75.36,39.23-75,53-72.56,1.5.27,3,.47,4.53.6-16,4.2-34.5,20.26-34.5,72V334.77a97.37,97.37,0,0,1-5.2,31.61C41.8,386.86,26.89,417.43,0,421V409.85C12.93,398.21,21.15,380.05,25.85,366.38Z"/><path class="cls-3" d="M103.21,82.05c-.89.22-1.79.42-2.71.59a44,44,0,0,1-12,.52A42.93,42.93,0,0,1,103.21,82.05Z"/><path class="cls-2" d="M147,11.44V.26h23V11.44s.92,62.31-46.5,71.2A45.87,45.87,0,0,1,107,82.56c-1.12-.19-2.4-.38-3.81-.51C147.87,71.34,147,11.44,147,11.44Z"/><path class="cls-3" d="M31.05,155.12V334.77a97.37,97.37,0,0,1-5.2,31.61C21.15,380.05,12.93,398.21,0,409.85V.26H147V11.44s.87,59.9-43.79,70.61a42.93,42.93,0,0,0-14.66,1.11c-1.51-.13-3-.33-4.53-.6C70.28,80.13,31.05,79.76,31.05,155.12Z"/></svg>