<svg id="Layer_1" data-name="Layer 1" xmlns="http://www.w3.org/2000/svg" viewBox="0 0 1366 768"><defs><style>.cls-1{fill:#d6c2ab}.cls-2{fill:#9ec5ab}</style></defs><path class="cls-1" d="M147 756.83V768h23v-11.17s.92-62.32-46.5-71.21a45.87 45.87 0 0 0-16.48.08c-1.12.19-2.4.38-3.81.51 44.66 10.71 43.79 70.62 43.79 70.62z"/><path class="cls-2" d="M103.21 686.21c-.89-.22-1.79-.42-2.71-.59a44 44 0 0 0-12-.52 42.93 42.93 0 0 0 14.71 1.11z"/><path class="cls-1" d="M25.85 401.88a97.37 97.37 0 0 1 5.2 31.61v179.65c0 75.36 39.23 75 53 72.56 1.5-.27 3-.47 4.53-.6-16-4.2-34.5-20.26-34.5-72V433.49a97.37 97.37 0 0 0-5.2-31.61C41.8 381.4 26.89 350.83 0 347.26v11.15c12.93 11.64 21.15 29.8 25.85 43.47z"/><path class="cls-2" d="M31.05 613.14V433.49a97.37 97.37 0 0 0-5.2-31.61c-4.7-13.67-12.92-31.83-25.85-43.47V768h147v-11.17s.87-59.91-43.79-70.62a42.93 42.93 0 0 1-14.66-1.11c-1.51.13-3 .33-4.53.6-13.74 2.43-52.97 2.8-52.97-72.56z"/><path class="cls-1" d="M1365.85 19.35V0h-256.36c-.65 11 .08 34.71 15.63 53.24 14.47 17.26 38.1 26 70.25 26 .35 0 35.32-4.64 60.3 17.1 16.87 14.67 25.42 37.77 25.42 68.61-.06.34-5.79 34.48 15 59.28 14.4 17.17 37.86 25.91 69.73 26V24.12a14.74 14.74 0 0 1 .15-1.48c.03-1.14-.03-2.23-.12-3.29z"/><path class="cls-2" d="M1365.71 19.35V0h-228.24c-.58 11 .07 34.71 13.91 53.24 12.89 17.26 33.93 26 62.55 26 .32 0 31.45-4.64 53.69 17.1 15 14.67 22.63 37.77 22.63 68.61 0 .34-5.16 34.48 13.37 59.28 12.82 17.17 33.71 25.91 62.08 26V24.13a13.42 13.42 0 0 1 .14-1.49c.01-1.14-.05-2.23-.13-3.29z"/></svg>