<svg id="Layer_1" data-name="Layer 1" xmlns="http://www.w3.org/2000/svg" viewBox="0 0 1366 768"><defs><style>.cls-1{fill:#f4e7d7;}.cls-2{fill:none;}.cls-3{fill:#d6c2ab;}.cls-4{fill:#9ec5ab;}</style></defs><title>hero_bg</title><rect class="cls-1" width="1366" height="768"/><path class="cls-2" d="M0,404v.26L1.64,404Z"/><path class="cls-3" d="M1365,19.85V.5H1108.64c-.65,11,.08,34.71,15.63,53.24,14.48,17.26,38.1,26,70.25,26h0c.36,0,35.33-4.64,60.31,17.1,16.86,14.67,25.41,37.77,25.41,68.61-.06.34-5.79,34.48,15,59.28,14.4,17.17,37.87,25.91,69.73,26V24.62c.06-.91.15-1.46.15-1.48C1365.15,22,1365.09,20.91,1365,19.85Z"/><path class="cls-4" d="M1364.86,19.85V.5H1136.62c-.57,11,.07,34.71,13.92,53.24,12.89,17.26,33.92,26,62.54,26h0c.31,0,31.44-4.64,53.68,17.1,15,14.67,22.63,37.77,22.63,68.61-.05.34-5.16,34.48,13.37,59.28,12.82,17.17,33.72,25.91,62.08,26V24.63c.05-.92.14-1.47.14-1.49C1365,22,1365,20.91,1364.86,19.85Z"/><path class="cls-3" d="M147,756.83V768h23V756.83s.92-62.32-46.5-71.21a45.87,45.87,0,0,0-16.48.08c-1.12.19-2.4.38-3.81.51C147.87,696.92,147,756.83,147,756.83Z"/><path class="cls-4" d="M103.21,686.21c-.89-.22-1.79-.42-2.71-.59a44,44,0,0,0-12-.52A42.93,42.93,0,0,0,103.21,686.21Z"/><path class="cls-3" d="M25.85,401.88a97.37,97.37,0,0,1,5.2,31.61V613.14c0,75.36,39.23,75,53,72.56,1.5-.27,3-.47,4.53-.6-16-4.2-34.5-20.26-34.5-72V433.49a97.37,97.37,0,0,0-5.2-31.61C41.8,381.4,26.89,350.83,0,347.26v11.15C12.93,370.05,21.15,388.21,25.85,401.88Z"/><path class="cls-4" d="M31.05,613.14V433.49a97.37,97.37,0,0,0-5.2-31.61C21.15,388.21,12.93,370.05,0,358.41V768H147V756.83s.87-59.91-43.79-70.62a42.93,42.93,0,0,1-14.66-1.11c-1.51.13-3,.33-4.53.6C70.28,688.13,31.05,688.5,31.05,613.14Z"/></svg>