<svg id="Layer_1" data-name="Layer 1" xmlns="http://www.w3.org/2000/svg" viewBox="0 0 1366 768"><defs><style>.cls-2{fill:#d6c2ab}.cls-3{fill:#9ec5ab}</style></defs><path d="M0 404v.26l1.64-.26z" fill="none"/><path class="cls-2" d="M694.88 729h453.41s73.37 6.67 73.37-55.56v-84.91s-2.65-60 79.2-60H1366V489h-77.26c-93.21 0-90.2 68.3-90.2 68.3V654c0 70.87-83.55 63.27-83.55 63.27H598.63c-64.72 0-78.55 32.89-81.28 50.73h107.33c4.41-16.08 19.56-39 70.2-39z"/><path class="cls-3" d="M1221.67 588.53v84.91c0 62.23-73.36 55.56-73.36 55.56H694.93c-50.63 0-65.78 22.92-70.19 39H1366V528.56h-65.13c-81.87 0-79.2 59.97-79.2 59.97z"/><path class="cls-2" d="M25.85 366.38a97.37 97.37 0 0 0 5.2-31.61V155.12c0-75.36 39.23-75 53-72.56 1.5.27 3 .47 4.53.6-16 4.2-34.5 20.26-34.5 72v179.61a97.37 97.37 0 0 1-5.2 31.61C41.8 386.86 26.89 417.43 0 421v-11.15c12.93-11.64 21.15-29.8 25.85-43.47z"/><path class="cls-3" d="M103.21 82.05c-.89.22-1.79.42-2.71.59a44 44 0 0 1-12 .52 42.93 42.93 0 0 1 14.71-1.11z"/><path class="cls-2" d="M147 11.44V.26h23v11.18s.92 62.31-46.5 71.2a45.87 45.87 0 0 1-16.5-.08c-1.12-.19-2.4-.38-3.81-.51C147.87 71.34 147 11.44 147 11.44z"/><path class="cls-3" d="M31.05 155.12v179.65a97.37 97.37 0 0 1-5.2 31.61c-4.7 13.67-12.92 31.83-25.85 43.47V.26h147v11.18s.87 59.9-43.79 70.61a42.93 42.93 0 0 0-14.66 1.11c-1.51-.13-3-.33-4.53-.6-13.74-2.43-52.97-2.8-52.97 72.56z"/></svg>