<svg id="Layer_1" data-name="Layer 1" xmlns="http://www.w3.org/2000/svg" viewBox="0 0 1366 768"><defs><style>.cls-1{fill:#d5c1aa;}.cls-2{fill:#9dc4aa;}</style></defs><title>services_background</title><path class="cls-1" d="M694.51,30.18h453.68s73.41-5.17,73.41,43v65.74s-2.65,46.43,79.25,46.43H1366V216h-77.3c-93.27,0-90.26-52.88-90.26-52.88V88.24c0-54.87-83.6-49-83.6-49H598.21c-64.77,0-78.6-25.46-81.34-39.28h107.4C628.68,12.43,643.84,30.18,694.51,30.18Z"/><path class="cls-2" d="M1221.6,146.14V77c0-50.68-73.41-45.25-73.41-45.25H694.51c-50.67,0-65.83-18.66-70.24-31.76H1366V195h-65.18C1219,195,1221.6,146.14,1221.6,146.14Z"/><path class="cls-1" d="M368.83,710.36c-25.56-25.27-63.95-25.14-64.33-25.11h-85c-27.8,0-49.3-8-63.93-23.65-23.09-24.77-20.85-60.72-20.82-61.1,0-18.3-4.48-34.17-13.32-47.17-7.08-10.4-16.94-19-29.31-25.55A117.08,117.08,0,0,0,49.5,515.25H0v8.21H18.9a113.39,113.39,0,0,1,41.23,12.12c12,6.34,21.52,14.66,28.36,24.72,8.56,12.58,12.9,27.94,12.9,45.65,0,.36-2.2,35.15,20.15,59.12,14.15,15.19,35,22.88,61.85,22.88h82.25c.37,0,37.51-.15,62.25,24.3,14,13.85,21.43,32.86,22.11,56.52h41.68C391,744.32,383.31,724.68,368.83,710.36Z"/><path class="cls-2" d="M265.64,688H183.39c-26.89,0-47.7-7.69-61.85-22.88-22.35-24-20.18-58.76-20.15-59.12,0-17.71-4.34-33.07-12.9-45.65-6.84-10.06-16.38-18.38-28.36-24.72A113.39,113.39,0,0,0,18.9,523.46H0V768.77H350c-.68-23.66-8.1-42.67-22.11-56.52C303.15,687.8,266,687.92,265.64,688Z"/></svg>